<mxfile host="app.diagrams.net" modified="2021-01-26T08:54:20.347Z" agent="5.0 (X11; Linux x86_64) AppleWebKit/537.36 (KHTML, like Gecko) Chrome/87.0.4280.66 Safari/537.36" etag="l90ovi8bwvxpDCtYupzr" version="14.2.7" type="github">
  <diagram id="31SpZ08aAqctG58gmiLc" name="ページ1">
    <mxGraphModel dx="372" dy="341" grid="1" gridSize="10" guides="1" tooltips="1" connect="1" arrows="1" fold="1" page="1" pageScale="1" pageWidth="827" pageHeight="1169" math="0" shadow="0">
      <root>
        <mxCell id="0" />
        <mxCell id="1" parent="0" />
        <mxCell id="9bn9rIld7UhY1FtaXozV-23" value="" style="ellipse;whiteSpace=wrap;html=1;aspect=fixed;" vertex="1" parent="1">
          <mxGeometry x="274" y="330" width="200" height="200" as="geometry" />
        </mxCell>
        <mxCell id="9bn9rIld7UhY1FtaXozV-9" value="" style="ellipse;whiteSpace=wrap;html=1;aspect=fixed;" vertex="1" parent="1">
          <mxGeometry x="294" y="350" width="160" height="160" as="geometry" />
        </mxCell>
        <mxCell id="9bn9rIld7UhY1FtaXozV-8" value="" style="ellipse;whiteSpace=wrap;html=1;aspect=fixed;" vertex="1" parent="1">
          <mxGeometry x="314" y="370" width="120" height="120" as="geometry" />
        </mxCell>
        <mxCell id="9bn9rIld7UhY1FtaXozV-6" value="" style="ellipse;whiteSpace=wrap;html=1;aspect=fixed;" vertex="1" parent="1">
          <mxGeometry x="334" y="390" width="80" height="80" as="geometry" />
        </mxCell>
        <mxCell id="9bn9rIld7UhY1FtaXozV-2" value="" style="ellipse;whiteSpace=wrap;html=1;aspect=fixed;" vertex="1" parent="1">
          <mxGeometry x="354" y="410" width="40" height="40" as="geometry" />
        </mxCell>
        <mxCell id="9bn9rIld7UhY1FtaXozV-10" value="" style="endArrow=none;html=1;entryX=0.5;entryY=0;entryDx=0;entryDy=0;exitX=0.5;exitY=0;exitDx=0;exitDy=0;" edge="1" parent="1" source="9bn9rIld7UhY1FtaXozV-23" target="9bn9rIld7UhY1FtaXozV-2">
          <mxGeometry width="50" height="50" relative="1" as="geometry">
            <mxPoint x="350" y="440" as="sourcePoint" />
            <mxPoint x="380" y="410" as="targetPoint" />
          </mxGeometry>
        </mxCell>
        <mxCell id="9bn9rIld7UhY1FtaXozV-11" value="" style="endArrow=none;html=1;entryX=0;entryY=1;entryDx=0;entryDy=0;exitX=0;exitY=1;exitDx=0;exitDy=0;" edge="1" parent="1" source="9bn9rIld7UhY1FtaXozV-6" target="9bn9rIld7UhY1FtaXozV-2">
          <mxGeometry width="50" height="50" relative="1" as="geometry">
            <mxPoint x="350" y="440" as="sourcePoint" />
            <mxPoint x="400" y="390" as="targetPoint" />
          </mxGeometry>
        </mxCell>
        <mxCell id="9bn9rIld7UhY1FtaXozV-12" value="" style="endArrow=none;html=1;entryX=1;entryY=1;entryDx=0;entryDy=0;exitX=1;exitY=1;exitDx=0;exitDy=0;" edge="1" parent="1" source="9bn9rIld7UhY1FtaXozV-6" target="9bn9rIld7UhY1FtaXozV-2">
          <mxGeometry width="50" height="50" relative="1" as="geometry">
            <mxPoint x="350" y="440" as="sourcePoint" />
            <mxPoint x="400" y="390" as="targetPoint" />
          </mxGeometry>
        </mxCell>
        <mxCell id="9bn9rIld7UhY1FtaXozV-13" value="" style="endArrow=none;html=1;entryX=0.963;entryY=0.328;entryDx=0;entryDy=0;exitX=0.96;exitY=0.306;exitDx=0;exitDy=0;exitPerimeter=0;entryPerimeter=0;" edge="1" parent="1" source="9bn9rIld7UhY1FtaXozV-8" target="9bn9rIld7UhY1FtaXozV-6">
          <mxGeometry width="50" height="50" relative="1" as="geometry">
            <mxPoint x="350" y="440" as="sourcePoint" />
            <mxPoint x="400" y="390" as="targetPoint" />
          </mxGeometry>
        </mxCell>
        <mxCell id="9bn9rIld7UhY1FtaXozV-14" value="" style="endArrow=none;html=1;entryX=0.045;entryY=0.314;entryDx=0;entryDy=0;entryPerimeter=0;exitX=0.035;exitY=0.304;exitDx=0;exitDy=0;exitPerimeter=0;" edge="1" parent="1" source="9bn9rIld7UhY1FtaXozV-8" target="9bn9rIld7UhY1FtaXozV-6">
          <mxGeometry width="50" height="50" relative="1" as="geometry">
            <mxPoint x="320" y="407" as="sourcePoint" />
            <mxPoint x="400" y="390" as="targetPoint" />
          </mxGeometry>
        </mxCell>
        <mxCell id="9bn9rIld7UhY1FtaXozV-15" value="" style="endArrow=none;html=1;entryX=0.195;entryY=0.886;entryDx=0;entryDy=0;entryPerimeter=0;exitX=0.188;exitY=0.895;exitDx=0;exitDy=0;exitPerimeter=0;" edge="1" parent="1" source="9bn9rIld7UhY1FtaXozV-8" target="9bn9rIld7UhY1FtaXozV-6">
          <mxGeometry width="50" height="50" relative="1" as="geometry">
            <mxPoint x="350" y="440" as="sourcePoint" />
            <mxPoint x="400" y="390" as="targetPoint" />
          </mxGeometry>
        </mxCell>
        <mxCell id="9bn9rIld7UhY1FtaXozV-16" value="" style="endArrow=none;html=1;entryX=0.803;entryY=0.895;entryDx=0;entryDy=0;entryPerimeter=0;exitX=0.822;exitY=0.885;exitDx=0;exitDy=0;exitPerimeter=0;" edge="1" parent="1" source="9bn9rIld7UhY1FtaXozV-8" target="9bn9rIld7UhY1FtaXozV-6">
          <mxGeometry width="50" height="50" relative="1" as="geometry">
            <mxPoint x="393.99939242105154" y="469.9958473703901" as="sourcePoint" />
            <mxPoint x="405.2299999999999" y="454.99999999999994" as="targetPoint" />
          </mxGeometry>
        </mxCell>
        <mxCell id="9bn9rIld7UhY1FtaXozV-17" value="" style="endArrow=none;html=1;entryX=0.915;entryY=0.214;entryDx=0;entryDy=0;exitX=0.91;exitY=0.209;exitDx=0;exitDy=0;exitPerimeter=0;entryPerimeter=0;" edge="1" parent="1" source="9bn9rIld7UhY1FtaXozV-9" target="9bn9rIld7UhY1FtaXozV-8">
          <mxGeometry width="50" height="50" relative="1" as="geometry">
            <mxPoint x="439.20000000000005" y="416.72" as="sourcePoint" />
            <mxPoint x="421.03999999999996" y="426.24" as="targetPoint" />
          </mxGeometry>
        </mxCell>
        <mxCell id="9bn9rIld7UhY1FtaXozV-18" value="" style="endArrow=none;html=1;exitX=0.074;exitY=0.223;exitDx=0;exitDy=0;exitPerimeter=0;" edge="1" parent="1" source="9bn9rIld7UhY1FtaXozV-9" target="9bn9rIld7UhY1FtaXozV-8">
          <mxGeometry width="50" height="50" relative="1" as="geometry">
            <mxPoint x="440.56854249492426" y="383.43145750507574" as="sourcePoint" />
            <mxPoint x="426.4264068711931" y="397.5735931288069" as="targetPoint" />
          </mxGeometry>
        </mxCell>
        <mxCell id="9bn9rIld7UhY1FtaXozV-19" value="" style="endArrow=none;html=1;entryX=0.98;entryY=0.626;entryDx=0;entryDy=0;exitX=0.992;exitY=0.626;exitDx=0;exitDy=0;entryPerimeter=0;exitPerimeter=0;" edge="1" parent="1" source="9bn9rIld7UhY1FtaXozV-9" target="9bn9rIld7UhY1FtaXozV-8">
          <mxGeometry width="50" height="50" relative="1" as="geometry">
            <mxPoint x="450.56854249492426" y="393.43145750507574" as="sourcePoint" />
            <mxPoint x="436.4264068711931" y="407.5735931288069" as="targetPoint" />
          </mxGeometry>
        </mxCell>
        <mxCell id="9bn9rIld7UhY1FtaXozV-20" value="" style="endArrow=none;html=1;exitX=0.754;exitY=0.93;exitDx=0;exitDy=0;exitPerimeter=0;entryX=0.749;entryY=0.932;entryDx=0;entryDy=0;entryPerimeter=0;" edge="1" parent="1" source="9bn9rIld7UhY1FtaXozV-9" target="9bn9rIld7UhY1FtaXozV-8">
          <mxGeometry width="50" height="50" relative="1" as="geometry">
            <mxPoint x="460.56854249492426" y="403.43145750507574" as="sourcePoint" />
            <mxPoint x="446.4264068711931" y="417.5735931288069" as="targetPoint" />
          </mxGeometry>
        </mxCell>
        <mxCell id="9bn9rIld7UhY1FtaXozV-21" value="" style="endArrow=none;html=1;entryX=0.267;entryY=0.934;entryDx=0;entryDy=0;entryPerimeter=0;" edge="1" parent="1" source="9bn9rIld7UhY1FtaXozV-9" target="9bn9rIld7UhY1FtaXozV-8">
          <mxGeometry width="50" height="50" relative="1" as="geometry">
            <mxPoint x="470.56854249492426" y="413.43145750507574" as="sourcePoint" />
            <mxPoint x="456.4264068711931" y="427.5735931288069" as="targetPoint" />
          </mxGeometry>
        </mxCell>
        <mxCell id="9bn9rIld7UhY1FtaXozV-22" value="" style="endArrow=none;html=1;entryX=0.024;entryY=0.615;entryDx=0;entryDy=0;entryPerimeter=0;exitX=0.016;exitY=0.623;exitDx=0;exitDy=0;exitPerimeter=0;" edge="1" parent="1" source="9bn9rIld7UhY1FtaXozV-9" target="9bn9rIld7UhY1FtaXozV-8">
          <mxGeometry width="50" height="50" relative="1" as="geometry">
            <mxPoint x="480.56854249492426" y="423.43145750507574" as="sourcePoint" />
            <mxPoint x="466.4264068711931" y="437.5735931288069" as="targetPoint" />
          </mxGeometry>
        </mxCell>
        <mxCell id="9bn9rIld7UhY1FtaXozV-24" value="" style="endArrow=none;html=1;exitX=0.948;exitY=0.737;exitDx=0;exitDy=0;exitPerimeter=0;entryX=0.937;entryY=0.738;entryDx=0;entryDy=0;entryPerimeter=0;" edge="1" parent="1" source="9bn9rIld7UhY1FtaXozV-9" target="9bn9rIld7UhY1FtaXozV-23">
          <mxGeometry width="50" height="50" relative="1" as="geometry">
            <mxPoint x="390" y="450" as="sourcePoint" />
            <mxPoint x="440" y="400" as="targetPoint" />
          </mxGeometry>
        </mxCell>
        <mxCell id="9bn9rIld7UhY1FtaXozV-25" value="" style="endArrow=none;html=1;exitX=0.07;exitY=0.747;exitDx=0;exitDy=0;exitPerimeter=0;" edge="1" parent="1" source="9bn9rIld7UhY1FtaXozV-9" target="9bn9rIld7UhY1FtaXozV-23">
          <mxGeometry width="50" height="50" relative="1" as="geometry">
            <mxPoint x="440.5685424949238" y="496.5685424949238" as="sourcePoint" />
            <mxPoint x="454.71067811865396" y="510.71067811865396" as="targetPoint" />
          </mxGeometry>
        </mxCell>
        <mxCell id="9bn9rIld7UhY1FtaXozV-26" value="" style="endArrow=none;html=1;exitX=0.996;exitY=0.398;exitDx=0;exitDy=0;exitPerimeter=0;" edge="1" parent="1" source="9bn9rIld7UhY1FtaXozV-9" target="9bn9rIld7UhY1FtaXozV-23">
          <mxGeometry width="50" height="50" relative="1" as="geometry">
            <mxPoint x="450.5685424949238" y="506.5685424949238" as="sourcePoint" />
            <mxPoint x="464.71067811865396" y="520.710678118654" as="targetPoint" />
          </mxGeometry>
        </mxCell>
        <mxCell id="9bn9rIld7UhY1FtaXozV-27" value="" style="endArrow=none;html=1;exitX=0.821;exitY=0.127;exitDx=0;exitDy=0;exitPerimeter=0;" edge="1" parent="1" source="9bn9rIld7UhY1FtaXozV-9" target="9bn9rIld7UhY1FtaXozV-23">
          <mxGeometry width="50" height="50" relative="1" as="geometry">
            <mxPoint x="460.5685424949238" y="516.5685424949238" as="sourcePoint" />
            <mxPoint x="474.71067811865396" y="530.710678118654" as="targetPoint" />
          </mxGeometry>
        </mxCell>
        <mxCell id="9bn9rIld7UhY1FtaXozV-28" value="" style="endArrow=none;html=1;entryX=0;entryY=0;entryDx=0;entryDy=0;exitX=0;exitY=0;exitDx=0;exitDy=0;" edge="1" parent="1" source="9bn9rIld7UhY1FtaXozV-9" target="9bn9rIld7UhY1FtaXozV-23">
          <mxGeometry width="50" height="50" relative="1" as="geometry">
            <mxPoint x="430" y="560" as="sourcePoint" />
            <mxPoint x="484.71067811865396" y="540.710678118654" as="targetPoint" />
          </mxGeometry>
        </mxCell>
        <mxCell id="9bn9rIld7UhY1FtaXozV-29" value="" style="endArrow=none;html=1;exitX=0.006;exitY=0.433;exitDx=0;exitDy=0;entryX=0.004;entryY=0.44;entryDx=0;entryDy=0;exitPerimeter=0;entryPerimeter=0;" edge="1" parent="1" source="9bn9rIld7UhY1FtaXozV-23" target="9bn9rIld7UhY1FtaXozV-9">
          <mxGeometry width="50" height="50" relative="1" as="geometry">
            <mxPoint x="480.5685424949238" y="536.5685424949238" as="sourcePoint" />
            <mxPoint x="494.71067811865396" y="550.710678118654" as="targetPoint" />
          </mxGeometry>
        </mxCell>
        <mxCell id="9bn9rIld7UhY1FtaXozV-30" value="" style="endArrow=none;html=1;entryX=0.705;entryY=0.951;entryDx=0;entryDy=0;entryPerimeter=0;exitX=0.697;exitY=0.955;exitDx=0;exitDy=0;exitPerimeter=0;" edge="1" parent="1" source="9bn9rIld7UhY1FtaXozV-9" target="9bn9rIld7UhY1FtaXozV-23">
          <mxGeometry width="50" height="50" relative="1" as="geometry">
            <mxPoint x="410" y="501" as="sourcePoint" />
            <mxPoint x="504.71067811865396" y="560.710678118654" as="targetPoint" />
          </mxGeometry>
        </mxCell>
        <mxCell id="9bn9rIld7UhY1FtaXozV-31" value="" style="endArrow=none;html=1;entryX=0.305;entryY=0.963;entryDx=0;entryDy=0;entryPerimeter=0;exitX=0.307;exitY=0.956;exitDx=0;exitDy=0;exitPerimeter=0;" edge="1" parent="1" source="9bn9rIld7UhY1FtaXozV-9" target="9bn9rIld7UhY1FtaXozV-23">
          <mxGeometry width="50" height="50" relative="1" as="geometry">
            <mxPoint x="414.4465511513732" y="513.9797777976346" as="sourcePoint" />
            <mxPoint x="422.19999999999993" y="532.4" as="targetPoint" />
          </mxGeometry>
        </mxCell>
      </root>
    </mxGraphModel>
  </diagram>
</mxfile>
